<svg xmlns="http://www.w3.org/2000/svg" xmlns:xlink="http://www.w3.org/1999/xlink" width="500" zoomAndPan="magnify" viewBox="0 0 375 374.999991" height="500" preserveAspectRatio="xMidYMid meet" version="1.0"><defs><clipPath id="00f5140387"><path d="M 35 58 L 316 58 L 316 342 L 35 342 Z M 35 58 " clip-rule="nonzero"/></clipPath><clipPath id="328a1339e6"><path d="M 202.265625 7.617188 L 366.859375 165.390625 L 172.757812 367.886719 L 8.164062 210.113281 Z M 202.265625 7.617188 " clip-rule="nonzero"/></clipPath><clipPath id="b3782f795d"><path d="M 202.265625 7.617188 L 366.859375 165.390625 L 172.757812 367.886719 L 8.164062 210.113281 Z M 202.265625 7.617188 " clip-rule="nonzero"/></clipPath></defs><g clip-path="url(#00f5140387)"><g clip-path="url(#328a1339e6)"><g clip-path="url(#b3782f795d)"><path fill="#a6a6a6" d="M 102.496094 127.546875 C 94.273438 119.902344 82.441406 132 90.550781 140.011719 L 113.308594 161.824219 C 109.851562 165.929688 99.015625 175.988281 96.113281 180.382812 L 77.015625 172.601562 C 73.753906 171.265625 69.984375 172.078125 67.535156 174.632812 L 38.378906 205.046875 C 35.09375 208.472656 35.210938 213.96875 38.640625 217.253906 C 42.132812 220.601562 47.566406 220.425781 50.851562 217 L 75.941406 190.824219 L 87.214844 195.410156 C 60.0625 256.5625 125.277344 319.074219 185.222656 289.359375 L 190.285156 300.425781 L 165.195312 326.601562 C 157.550781 334.824219 169.652344 346.664062 177.664062 338.554688 L 206.816406 308.140625 C 209.265625 305.585938 209.917969 301.785156 208.445312 298.582031 L 199.859375 279.828125 C 201.84375 278.261719 203.695312 276.449219 205.488281 274.582031 L 217.675781 261.867188 L 240.433594 283.679688 C 243.859375 286.96875 249.355469 286.851562 252.640625 283.425781 C 255.925781 279.996094 255.808594 274.503906 252.378906 271.214844 L 229.621094 249.402344 L 247.246094 231.019531 L 265.855469 238.6875 C 269.117188 240.023438 272.886719 239.214844 275.335938 236.65625 L 304.550781 206.183594 C 312.3125 197.960938 299.96875 186.125 292.078125 194.230469 L 266.929688 220.46875 L 257.6875 216.632812 C 262.167969 206.214844 261.421875 194.140625 255.652344 184.183594 L 264.910156 174.523438 C 275.84375 163.121094 279.726562 147.585938 276.667969 133.179688 C 285.652344 130.546875 295.332031 132.054688 303.960938 135.78125 C 308.394531 137.398438 313.351562 135.097656 314.96875 130.664062 C 317.269531 124.144531 312.351562 119.667969 306.273438 118.265625 C 294.632812 113.6875 281.742188 113.40625 269.855469 117.199219 C 266.316406 111.777344 261.207031 106.875 255.640625 103.574219 C 259.445312 90.242188 257.554688 76.113281 251.613281 63.71875 C 247.175781 53.367188 231.375 59.867188 235.691406 70.34375 C 239.78125 78.804688 241.695312 88.292969 239.449219 97.5 C 224.921875 95.054688 209.503906 99.53125 198.574219 110.9375 L 189.3125 120.597656 C 179.125 115.253906 167.089844 115.078125 156.808594 119.9375 L 152.585938 110.863281 L 177.734375 84.625 C 185.5 76.402344 173.277344 64.566406 165.265625 72.671875 L 136.054688 103.148438 C 133.605469 105.703125 132.953125 109.503906 134.488281 112.769531 L 142.878906 130.976562 L 125.253906 149.359375 Z M 211.042969 122.890625 C 238.019531 96.371094 277.859375 134.558594 252.441406 162.570312 L 244.316406 171.046875 L 236.085938 163.160156 C 232.644531 159.859375 227.175781 159.972656 223.878906 163.414062 L 217.902344 169.648438 L 164.558594 225.300781 C 156.730469 233.464844 144.324219 221.574219 152.085938 213.347656 L 205.433594 157.695312 L 211.410156 151.460938 C 214.707031 148.019531 214.589844 142.554688 211.148438 139.253906 L 202.917969 131.367188 Z M 211.042969 122.890625 " fill-opacity="1" fill-rule="nonzero"/></g></g></g></svg>